# xmcd
#
# Track frame offsets:
#	150
#	15940
#	26635
#	36572
#	50162
#	68197
#	82952
#	99177
#	116037
#	127057
#	143570
#	159532
#	170292
#	180307
#	193937
#	211967
#	226697
#	242945
#	259897
#	270957
#
# Disc length: 3832 seconds
#
# Revision: 0
# Processed by: cddbd v1.5.1PL0 Copyright (c) Steve Scherf et al.
# Submitted via: audiograbber 1.82.02
#
DISCID=0f0ef614
DTITLE=Amaro Batista - O Vento Levou
DYEAR=2004
DGENRE=Gospel
TTITLE0=De Volta Pra Casa
TTITLE1=Eu Disse Não
TTITLE2=O Vento Levou
TTITLE3=Apaixonado Por Jesus
TTITLE4=Eu Nasci
TTITLE5=Por Você Não Vem
TTITLE6=Pelos Meus Pais
TTITLE7=Deus é Tudo
TTITLE8=Mulher de Deus
TTITLE9=Pai
TTITLE10=PlayBack
TTITLE11=PlayBack
TTITLE12=PlayBack
TTITLE13=PlayBack
TTITLE14=PlayBack
TTITLE15=PlayBack
TTITLE16=PlayBack
TTITLE17=PlayBack
TTITLE18=PlayBack
TTITLE19=PlayBack
EXTD=
EXTT0=
EXTT1=
EXTT2=
EXTT3=
EXTT4=
EXTT5=
EXTT6=
EXTT7=
EXTT8=
EXTT9=
EXTT10=
EXTT11=
EXTT12=
EXTT13=
EXTT14=
EXTT15=
EXTT16=
EXTT17=
EXTT18=
EXTT19=
PLAYORDER=
